<?xml version="1.0" standalone="no"?>
<!DOCTYPE svg PUBLIC "-//W3C//DTD SVG 20010904//EN"
 "http://www.w3.org/TR/2001/REC-SVG-20010904/DTD/svg10.dtd">
<svg version="1.0" xmlns="http://www.w3.org/2000/svg"
 width="700.000000pt" height="700.000000pt" viewBox="0 0 700.000000 700.000000"
 preserveAspectRatio="xMidYMid meet">
<metadata>
Created by potrace 1.11, written by Peter Selinger 2001-2013
</metadata>
<g transform="translate(0.000000,700.000000) scale(0.100000,-0.100000)"
fill="#000000" stroke="none">
<path d="M3370 6965 c-8 -2 -51 -9 -95 -16 -85 -13 -200 -51 -287 -95 -84 -42
-2054 -1180 -2141 -1236 -183 -119 -342 -324 -413 -530 -62 -183 -59 -107 -59
-1528 0 -1200 1 -1301 18 -1374 42 -189 127 -363 246 -499 68 -79 226 -222
297 -269 109 -73 2059 -1196 2159 -1244 50 -24 131 -56 180 -71 85 -25 102
-27 280 -27 178 0 195 2 280 27 50 15 131 47 180 71 96 46 2043 1167 2160
1244 88 58 238 207 294 292 94 146 151 304 170 473 14 125 15 2456 1 2577 -22
190 -96 378 -208 526 -77 101 -240 258 -334 322 -69 46 -1956 1138 -2115 1225
-97 52 -210 94 -303 113 -71 14 -278 27 -310 19z m937 -1439 c134 -42 217
-159 238 -334 l6 -53 -48 -20 c-206 -87 -354 -183 -510 -332 -262 -251 -489
-621 -643 -1047 l-38 -105 -12 43 c-24 92 -50 337 -50 481 0 693 221 1197 588
1340 127 50 354 63 469 27z m-3042 -526 c18 -18 36 -42 39 -55 5 -20 13 -22
100 -28 157 -10 259 -54 364 -155 104 -100 181 -248 224 -427 20 -83 26 -95
53 -111 196 -112 334 -347 335 -570 0 -112 -21 -167 -94 -240 -103 -103 -244
-183 -375 -214 -78 -18 -192 -7 -261 27 -205 100 -317 395 -250 657 34 134
113 247 220 316 43 27 48 35 39 51 -19 36 -110 99 -167 115 -67 20 -187 15
-271 -11 -53 -16 -53 -17 -48 -50 14 -84 -39 -155 -121 -163 -87 -8 -152 49
-152 133 0 107 128 177 211 116 l28 -21 47 30 c51 32 114 55 182 65 93 15 224
-41 332 -140 l65 -60 60 5 60 5 -4 45 c-18 225 -200 416 -499 524 l-73 26 -8
-23 c-14 -36 -66 -74 -110 -82 -81 -14 -151 50 -151 136 0 122 139 183 225 99z
m3577 -31 c266 -55 431 -340 388 -670 -29 -225 -122 -404 -295 -568 -156 -148
-339 -238 -592 -292 -126 -27 -433 -37 -596 -19 -110 12 -304 44 -312 51 -7 7
84 305 125 409 127 324 291 582 491 775 109 105 200 168 331 229 171 80 337
111 460 85z m-1757 -1544 c493 -87 1074 -369 1408 -684 201 -190 298 -427 268
-656 l-11 -81 101 -208 c55 -114 98 -210 96 -212 -2 -2 -104 5 -226 16 -219
21 -222 21 -249 2 -50 -36 -130 -72 -209 -94 -115 -33 -301 -30 -436 5 -397
105 -840 496 -1186 1047 -92 146 -214 390 -247 495 -31 98 -41 200 -22 235 33
61 177 131 310 150 86 12 294 4 403 -15z"/>
</g>
</svg>
