<?xml version="1.0" standalone="no"?>
<!DOCTYPE svg PUBLIC "-//W3C//DTD SVG 20010904//EN"
 "http://www.w3.org/TR/2001/REC-SVG-20010904/DTD/svg10.dtd">
<svg version="1.0" xmlns="http://www.w3.org/2000/svg"
 width="928.000000pt" height="928.000000pt" viewBox="0 0 928.000000 928.000000"
 preserveAspectRatio="xMidYMid meet">
<metadata>
Created by potrace 1.11, written by Peter Selinger 2001-2013
</metadata>
<g transform="translate(0.000000,928.000000) scale(0.100000,-0.100000)"
fill="#000000" stroke="none">
<path d="M6651 9269 c-115 -22 -280 -94 -428 -186 l-71 -44 -89 15 c-389 65
-739 96 -1168 103 -614 10 -1098 -36 -1633 -153 -834 -183 -1215 -423 -1296
-819 -54 -260 -12 -520 115 -710 86 -128 213 -223 404 -300 224 -90 465 -137
1055 -205 102 -11 219 -25 260 -30 41 -5 113 -13 160 -16 47 -4 90 -9 97 -13
7 -4 -34 -42 -100 -93 -496 -385 -946 -958 -1191 -1515 l-27 -63 -40 20 c-58
30 -170 141 -260 257 -168 216 -271 287 -418 287 -89 0 -141 -19 -381 -136
-242 -118 -331 -148 -442 -148 -140 0 -238 46 -341 161 -129 142 -209 381
-210 629 -1 116 2 144 22 200 126 358 620 608 1395 705 65 8 125 20 132 26 21
17 17 66 -6 79 -22 12 -104 4 -315 -30 -377 -61 -769 -210 -1055 -401 -135
-90 -186 -143 -235 -243 -58 -118 -68 -177 -62 -361 5 -176 25 -269 92 -433
65 -160 179 -309 277 -364 l41 -23 -7 -105 c-30 -495 -6 -894 85 -1385 41
-219 132 -569 209 -805 200 -608 574 -1393 883 -1855 276 -413 528 -667 852
-862 379 -228 770 -352 1345 -425 159 -20 219 -22 655 -23 454 0 488 1 625 23
681 109 1111 405 1677 1157 719 954 1195 2192 1309 3405 21 225 30 768 15 913
-26 245 -50 374 -103 535 l-30 93 23 57 c44 112 90 189 165 272 102 116 134
171 134 237 0 72 -25 98 -179 183 -310 171 -804 367 -1198 475 l-102 29 55 58
c104 114 194 273 229 406 24 97 36 264 25 362 -27 234 -115 403 -260 496 -54
35 -60 42 -60 74 0 19 -7 64 -15 99 -44 186 -205 355 -373 390 -61 13 -177 13
-241 0z m170 -145 c130 -38 253 -162 283 -286 l6 -27 -67 20 c-145 41 -494
128 -618 154 -71 15 -132 28 -133 30 -12 11 202 101 273 115 70 14 198 11 256
-6z m-1481 -104 c123 -9 385 -36 627 -66 l52 -7 -107 -85 c-334 -267 -682
-623 -938 -961 l-78 -104 -271 6 c-148 4 -375 15 -504 27 l-234 20 -136 132
c-262 256 -483 410 -730 507 -109 43 -122 47 -215 60 -121 17 -228 -12 -292
-81 -57 -60 -77 -113 -82 -216 -4 -80 -7 -92 -21 -88 -9 2 -40 8 -68 11 -45 6
-53 4 -53 -10 0 -10 30 -30 86 -57 73 -35 88 -47 106 -82 134 -265 602 -650
1013 -836 66 -29 167 -71 225 -91 58 -21 94 -38 81 -38 -25 -1 -187 18 -426
50 -82 11 -168 22 -190 25 -80 11 -302 56 -390 79 -383 102 -577 225 -666 424
-46 103 -62 205 -56 361 5 157 20 223 73 321 36 66 158 191 239 244 204 134
555 260 924 334 283 57 792 115 1131 131 220 10 679 5 900 -10z m932 -110
c314 -51 512 -100 735 -181 l112 -41 -5 -46 c-15 -127 -67 -271 -144 -396 -89
-148 -79 -141 -285 -187 -574 -127 -993 -198 -1350 -228 -304 -26 -288 -26
-277 -5 20 36 224 285 330 401 148 164 388 403 507 505 83 71 244 197 252 198
2 0 58 -9 125 -20z m1058 -357 c86 -98 132 -213 150 -371 19 -172 -7 -320 -81
-463 -127 -245 -393 -427 -785 -538 -264 -74 -494 -110 -919 -142 -220 -17
-851 -41 -863 -33 -2 1 23 7 55 13 425 82 838 220 1228 411 338 165 547 308
744 509 95 96 123 120 169 137 62 23 87 49 62 64 -8 5 -23 7 -34 4 -21 -7 -24
-14 46 93 58 87 119 209 142 283 10 30 19 61 21 68 7 21 22 13 65 -35z m-4395
-213 c153 -52 311 -141 459 -258 96 -76 218 -184 213 -189 -6 -5 -164 21 -287
48 -95 21 -187 45 -540 137 l-184 48 -23 50 c-41 84 -21 157 52 191 51 23 202
10 310 -27z m-189 -370 c113 -35 376 -89 678 -140 l300 -50 49 -47 c125 -122
489 -574 474 -589 -2 -2 -50 5 -107 16 -376 74 -731 230 -1032 452 -193 143
-463 378 -433 378 6 0 38 -9 71 -20z m3959 -37 c-124 -115 -305 -230 -530
-338 -354 -171 -706 -301 -1050 -390 -208 -54 -505 -107 -505 -91 0 37 315
559 358 594 10 7 47 12 96 12 111 0 484 27 636 46 355 43 750 122 965 192 84
28 86 27 30 -25z m-2500 -198 c110 -8 296 -17 413 -21 116 -4 212 -9 212 -11
0 -2 -26 -43 -58 -91 -73 -108 -209 -337 -252 -423 -18 -35 -33 -65 -34 -66
-1 -1 -11 0 -23 3 -12 3 -34 25 -49 47 -90 139 -247 347 -412 549 -15 18 -19
28 -10 28 7 0 103 -7 213 -15z m3195 -499 c250 -70 504 -161 720 -256 52 -23
142 -61 200 -84 154 -63 218 -95 256 -128 60 -53 47 -99 -76 -283 -63 -96
-103 -171 -149 -280 -35 -83 -79 -178 -98 -213 -42 -76 -136 -179 -204 -223
-144 -92 -345 -90 -569 6 -109 47 -191 92 -409 227 -325 202 -469 256 -603
229 -88 -17 -155 -61 -261 -171 -313 -324 -393 -390 -558 -461 -254 -110 -449
-92 -904 84 l-90 34 -17 184 c-24 264 -74 603 -128 871 -11 53 -20 102 -20
108 0 9 43 11 183 5 228 -8 1084 22 1272 45 44 5 125 14 180 20 368 38 734
148 975 295 89 53 80 54 300 -9z m-2992 -508 c57 -293 145 -948 130 -963 -3
-3 -34 4 -69 14 -164 50 -385 66 -510 37 -161 -37 -251 -93 -446 -277 -254
-241 -361 -303 -570 -334 l-43 -7 29 64 c37 82 150 290 214 393 224 360 525
705 850 972 132 109 347 263 368 263 13 0 22 -34 47 -162z m4029 -1010 c-3 -7
-5 -2 -5 12 0 14 2 19 5 13 2 -7 2 -19 0 -25z m21 -123 c0 -22 -3 -19 -9 15
-10 60 -9 108 2 55 4 -22 8 -53 7 -70z m-1169 -59 c47 -35 61 -43 191 -114
129 -70 268 -96 367 -67 67 20 67 20 82 -84 56 -387 36 -797 -60 -1201 -53
-223 -140 -541 -182 -664 l-23 -69 -18 99 c-10 55 -26 136 -37 181 -10 45 -19
93 -19 105 0 13 -9 64 -19 113 -11 50 -29 137 -40 195 -11 58 -32 161 -45 230
-13 69 -30 153 -37 188 -6 34 -14 62 -16 62 -3 0 -18 -9 -34 -21 -36 -26 -157
-81 -246 -113 -377 -137 -865 -96 -1071 89 -97 87 -130 208 -88 318 67 175
383 421 726 565 159 67 401 131 494 132 41 0 41 1 20 73 -8 24 2 22 55 -17z
m985 -141 l5 -70 -14 85 c-15 94 -18 144 -5 90 5 -19 11 -66 14 -105z m13
-137 c-2 -13 -4 -5 -4 17 -1 22 1 32 4 23 2 -10 2 -28 0 -40z m190 -130 c-2
-35 -3 -7 -3 62 0 69 1 97 3 63 2 -35 2 -91 0 -125z m-180 -215 c-2 -32 -3 -8
-3 52 0 61 1 87 3 58 2 -29 2 -78 0 -110z m153 -293 c-7 -72 -15 -129 -17
-126 -3 2 1 63 8 135 7 72 14 129 17 126 2 -2 -1 -63 -8 -135z m-163 13 c-3
-10 -5 -2 -5 17 0 19 2 27 5 18 2 -10 2 -26 0 -35z m-17 -165 c-7 -55 -14 -97
-17 -95 -2 3 2 53 9 112 7 58 14 101 17 94 2 -7 -2 -57 -9 -111z m157 -30 c-3
-8 -6 -5 -6 6 -1 11 2 17 5 13 3 -3 4 -12 1 -19z m-17 -158 c-7 -44 -15 -79
-17 -76 -2 2 1 40 8 85 7 44 14 79 17 76 3 -2 -1 -41 -8 -85z m-180 -90 c-7
-39 -15 -68 -18 -66 -2 3 2 36 9 75 7 39 15 68 18 66 2 -3 -2 -36 -9 -75z
m157 -32 c-3 -7 -5 -2 -5 12 0 14 2 19 5 13 2 -7 2 -19 0 -25z m-23 -147 c-10
-45 -19 -79 -22 -77 -2 3 4 41 14 86 9 44 19 78 21 76 2 -2 -3 -40 -13 -85z
m-167 7 c-3 -8 -6 -5 -6 6 -1 11 2 17 5 13 3 -3 4 -12 1 -19z m-12 -58 c-9
-41 -17 -33 -9 9 4 17 9 30 11 27 3 -2 2 -19 -2 -36z m139 -144 c-9 -37 -18
-65 -21 -63 -2 3 4 34 13 71 9 37 18 65 21 63 2 -3 -4 -34 -13 -71z m-175 -10
c-6 -26 -13 -45 -16 -43 -2 3 1 26 8 51 6 26 13 45 16 43 2 -3 -1 -26 -8 -51z
m-40 -155 c-7 -23 -14 -39 -16 -37 -3 2 1 23 8 45 7 23 14 39 16 37 3 -2 -1
-23 -8 -45z m170 -25 c-6 -26 -13 -45 -16 -43 -2 3 1 26 8 51 6 26 13 45 16
43 2 -3 -1 -26 -8 -51z m-219 -133 c-11 -17 -11 -17 -6 0 3 10 6 24 7 30 0 9
2 9 5 0 3 -7 0 -20 -6 -30z m179 -22 c-7 -23 -14 -39 -16 -37 -3 2 1 23 8 45
7 23 14 39 16 37 3 -2 -1 -23 -8 -45z m-219 -108 c-11 -17 -11 -17 -6 0 3 10
6 24 7 30 0 9 2 9 5 0 3 -7 0 -20 -6 -30z m180 -28 c-16 -47 -23 -40 -8 8 6
20 13 35 16 33 2 -3 -1 -21 -8 -41z m-225 -102 c-9 -15 -13 -19 -10 -8 4 11
10 29 13 40 3 11 7 14 9 8 3 -7 -3 -24 -12 -40z m181 -34 c-18 -41 -21 -29 -4
18 7 19 14 30 16 25 1 -4 -4 -24 -12 -43z m-217 -78 c-6 -18 -13 -30 -15 -28
-2 2 1 18 7 36 6 18 13 30 15 28 2 -2 -1 -18 -7 -36z m172 -52 c-11 -24 -20
-41 -20 -37 -1 12 31 89 35 85 3 -2 -4 -24 -15 -48z m-215 -56 c-8 -15 -15
-25 -16 -21 0 12 23 58 27 54 3 -2 -2 -17 -11 -33z m185 -30 c-12 -20 -14 -14
-5 12 4 9 9 14 11 11 3 -2 0 -13 -6 -23z m-20 -50 c-12 -20 -14 -14 -5 12 4 9
9 14 11 11 3 -2 0 -13 -6 -23z m-205 -27 c-21 -49 -28 -46 -9 4 9 22 18 38 20
36 2 -2 -3 -20 -11 -40z m182 -41 c-6 -14 -13 -23 -15 -21 -5 5 15 46 22 46 3
0 -1 -11 -7 -25z m-215 -40 c-3 -9 -8 -14 -10 -11 -3 3 -2 9 2 15 9 16 15 13
8 -4z m175 -60 c-6 -14 -13 -23 -15 -21 -5 5 15 46 22 46 3 0 -1 -11 -7 -25z
m-227 -62 c-11 -21 -20 -35 -21 -31 0 12 33 78 38 74 2 -2 -6 -21 -17 -43z
m175 -60 c-8 -15 -15 -25 -16 -21 0 12 23 58 27 54 3 -2 -2 -17 -11 -33z
m-213 -28 c-9 -19 -18 -33 -21 -31 -4 5 26 66 33 66 3 0 -3 -16 -12 -35z m173
-62 c-8 -15 -15 -25 -16 -21 0 12 23 58 27 54 3 -2 -2 -17 -11 -33z m-206 -11
c0 -5 -7 -17 -15 -28 -14 -18 -14 -17 -4 9 12 27 19 34 19 19z m180 -50 c0 -5
-7 -17 -15 -28 -14 -18 -14 -17 -4 9 12 27 19 34 19 19z m-55 -112 c-9 -16
-18 -30 -21 -30 -2 0 2 14 11 30 9 17 18 30 21 30 2 0 -2 -13 -11 -30z m-205
-8 c0 -5 -7 -17 -15 -28 -14 -18 -14 -17 -4 9 12 27 19 34 19 19z m160 -82
c-6 -11 -13 -20 -16 -20 -2 0 0 9 6 20 6 11 13 20 16 20 2 0 0 -9 -6 -20z
m-200 2 c0 -5 -7 -17 -15 -28 -14 -18 -14 -17 -4 9 12 27 19 34 19 19z m165
-72 c-9 -16 -18 -30 -21 -30 -2 0 2 14 11 30 9 17 18 30 21 30 2 0 -2 -13 -11
-30z m-205 -8 c0 -5 -7 -17 -15 -28 -14 -18 -14 -17 -4 9 12 27 19 34 19 19z
m156 -84 c-9 -12 -16 -19 -16 -15 0 11 24 47 28 42 2 -2 -3 -14 -12 -27z
m-211 -18 c-9 -16 -18 -30 -21 -30 -2 0 2 14 11 30 9 17 18 30 21 30 2 0 -2
-13 -11 -30z m176 -43 c-10 -9 -11 -8 -5 6 3 10 9 15 12 12 3 -3 0 -11 -7 -18z
m-41 -77 c-6 -11 -13 -20 -16 -20 -2 0 0 9 6 20 6 11 13 20 16 20 2 0 0 -9 -6
-20z m-219 -33 c-10 -9 -11 -8 -5 6 3 10 9 15 12 12 3 -3 0 -11 -7 -18z m177
-37 c-7 -10 -14 -17 -17 -15 -4 4 18 35 25 35 2 0 -1 -9 -8 -20z m-222 -42
c-9 -12 -16 -19 -16 -15 0 11 24 47 28 42 2 -2 -3 -14 -12 -27z m-26 -45 c0
-5 -10 -19 -21 -33 l-21 -25 18 33 c18 32 24 38 24 25z m170 -42 c-5 -11 -15
-23 -21 -27 -6 -3 -3 5 6 20 20 30 30 35 15 7z m-52 -81 c-7 -10 -14 -17 -17
-15 -4 4 18 35 25 35 2 0 -1 -9 -8 -20z m-198 -7 c0 -5 -10 -19 -21 -33 l-21
-25 18 33 c18 32 24 38 24 25z m-50 -82 c-5 -11 -15 -23 -21 -27 -6 -3 -3 5 6
20 20 30 30 35 15 7z m170 -31 c-6 -11 -13 -20 -16 -20 -2 0 0 9 6 20 6 11 13
20 16 20 2 0 0 -9 -6 -20z m-220 -50 c-6 -11 -13 -20 -16 -20 -2 0 0 9 6 20 6
11 13 20 16 20 2 0 0 -9 -6 -20z m-40 -60 c-6 -11 -13 -20 -16 -20 -2 0 0 9 6
20 6 11 13 20 16 20 2 0 0 -9 -6 -20z m-40 -60 c-6 -11 -13 -20 -16 -20 -2 0
0 9 6 20 6 11 13 20 16 20 2 0 0 -9 -6 -20z m174 -15 c-9 -14 -18 -25 -21 -25
-5 0 5 18 20 38 17 22 18 13 1 -13z m-214 -44 c-5 -11 -15 -23 -21 -27 -6 -3
-3 5 6 20 20 30 30 35 15 7z m174 -16 c-9 -14 -18 -25 -21 -25 -5 0 5 18 20
38 17 22 18 13 1 -13z m-204 -29 c0 -2 -8 -10 -17 -17 -16 -13 -17 -12 -4 4
13 16 21 21 21 13z m180 -9 c0 -2 -10 -12 -22 -23 l-23 -19 19 23 c18 21 26
27 26 19z m-230 -61 c0 -2 -8 -10 -17 -17 -16 -13 -17 -12 -4 4 13 16 21 21
21 13z m166 -24 c-17 -16 -18 -16 -5 5 7 12 15 20 18 17 3 -2 -3 -12 -13 -22z
m-196 -15 c0 -2 -10 -12 -22 -23 l-23 -19 19 23 c18 21 26 27 26 19z m164 -32
c-9 -14 -18 -25 -21 -25 -5 0 5 18 20 38 17 22 18 13 1 -13z m-204 -18 c0 -2
-10 -12 -22 -23 l-23 -19 19 23 c18 21 26 27 26 19z m170 -31 c0 -2 -8 -10
-17 -17 -16 -13 -17 -12 -4 4 13 16 21 21 21 13z m-220 -30 c0 -2 -8 -10 -17
-17 -16 -13 -17 -12 -4 4 13 16 21 21 21 13z m180 -20 c0 -2 -8 -10 -17 -17
-16 -13 -17 -12 -4 4 13 16 21 21 21 13z m-220 -30 c0 -2 -8 -10 -17 -17 -16
-13 -17 -12 -4 4 13 16 21 21 21 13z m170 -36 c-12 -16 -24 -30 -26 -30 -3 0
4 14 16 30 12 17 24 30 26 30 3 0 -4 -13 -16 -30z m-210 -4 c0 -2 -8 -10 -17
-17 -16 -13 -17 -12 -4 4 13 16 21 21 21 13z m-40 -40 c0 -2 -8 -10 -17 -17
-16 -13 -17 -12 -4 4 13 16 21 21 21 13z m210 -10 c0 -2 -7 -9 -15 -16 -13
-11 -14 -10 -9 4 5 14 24 23 24 12z m-295 -86 c-3 -5 -12 -10 -18 -10 -7 0 -6
4 3 10 19 12 23 12 15 0z m225 7 c0 -2 -10 -12 -22 -23 l-23 -19 19 23 c18 21
26 27 26 19z m-260 -30 c0 -2 -17 -19 -37 -38 l-38 -34 34 38 c33 34 41 42 41
34z m210 -30 c0 -1 -46 -47 -102 -102 l-103 -100 100 103 c93 95 105 107 105
99z m-300 -51 c0 -2 -8 -10 -17 -17 -16 -13 -17 -12 -4 4 13 16 21 21 21 13z
m-55 -46 c-3 -5 -16 -15 -28 -21 -19 -9 -19 -8 3 10 28 23 34 26 25 11z m-55
-33 c0 -2 -10 -12 -22 -23 l-23 -19 19 23 c18 21 26 27 26 19z m-70 -52 c0 -2
-10 -9 -22 -15 -22 -11 -22 -10 -4 4 21 17 26 19 26 11z m270 -18 c0 -2 -15
-16 -32 -33 l-33 -29 29 33 c28 30 36 37 36 29z m-354 -32 c-11 -8 -25 -15
-30 -15 -6 1 0 7 14 15 32 19 40 18 16 0z m-2391 -39 c28 -8 43 -15 35 -15 -8
0 -37 6 -65 13 -27 8 -43 15 -35 15 8 0 38 -6 65 -13z m2315 -1 c-14 -8 -29
-14 -35 -14 -5 0 1 6 15 14 14 8 30 14 35 14 6 0 -1 -6 -15 -14z m350 1 c0 -2
-8 -10 -17 -17 -16 -13 -17 -12 -4 4 13 16 21 21 21 13z m-2465 -40 c33 -8 49
-14 35 -14 -28 0 -133 25 -110 26 8 1 42 -5 75 -12z m2015 -1 c-14 -8 -29 -14
-35 -14 -5 0 1 6 15 14 14 8 30 14 35 14 6 0 -1 -6 -15 -14z m400 1 c0 -2 -8
-10 -17 -17 -16 -13 -17 -12 -4 4 13 16 21 21 21 13z m-2313 -22 c-3 -3 -12
-4 -19 -1 -8 3 -5 6 6 6 11 1 17 -2 13 -5z m173 -24 c28 -8 25 -8 -18 -4 -29
3 -65 10 -80 15 -35 11 47 2 98 -11z m1615 5 c-16 -8 -37 -14 -45 -14 -8 0 1
7 20 14 46 18 64 17 25 0z m-1542 -22 c-7 -2 -19 -2 -25 0 -7 3 -2 5 12 5 14
0 19 -2 13 -5z m1474 1 c-3 -3 -12 -4 -19 -1 -8 3 -5 6 6 6 11 1 17 -2 13 -5z
m-1364 -11 c-7 -2 -21 -2 -30 0 -10 3 -4 5 12 5 17 0 24 -2 18 -5z m1292 -2
c-11 -5 -40 -11 -65 -14 l-45 -6 50 14 c56 15 91 18 60 6z m-1190 -10 c26 -6
31 -9 15 -9 -14 -1 -43 3 -65 7 -26 6 -31 9 -15 9 14 1 43 -3 65 -7z m103 -18
c-10 -2 -28 -2 -40 0 -13 2 -5 4 17 4 22 1 32 -1 23 -4z m965 0 c-7 -2 -21 -2
-30 0 -10 3 -4 5 12 5 17 0 24 -2 18 -5z m-815 -10 c-10 -2 -26 -2 -35 0 -10
3 -2 5 17 5 19 0 27 -2 18 -5z m700 0 c-10 -2 -26 -2 -35 0 -10 3 -2 5 17 5
19 0 27 -2 18 -5z m-113 -14 c-78 -9 -376 -9 -485 -1 -48 4 52 7 230 7 173 0
288 -3 255 -6z m835 7 c0 -2 -12 -11 -27 -20 l-28 -17 24 20 c23 21 31 25 31
17z m-81 -50 c-2 -2 -15 -9 -29 -15 -24 -11 -24 -11 -6 3 16 13 49 24 35 12z
m-99 -51 c-14 -8 -29 -14 -35 -14 -5 0 1 6 15 14 14 8 30 14 35 14 6 0 -1 -6
-15 -14z m-110 -45 c-8 -5 -19 -10 -25 -10 -5 0 -3 5 5 10 8 5 20 10 25 10 6
0 3 -5 -5 -10z m-105 -35 c-16 -8 -37 -14 -45 -14 -8 0 1 7 20 14 46 18 64 17
25 0z m-1605 -55 c54 -9 53 -9 -15 -4 -38 3 -77 10 -85 15 -10 6 -5 7 15 4 17
-3 55 -10 85 -15z m1415 4 c-27 -7 -54 -13 -60 -13 -17 2 69 27 90 27 11 0 -2
-6 -30 -14z m-1237 -21 c-10 -2 -28 -2 -40 0 -13 2 -5 4 17 4 22 1 32 -1 23
-4z m1115 0 c-7 -2 -21 -2 -30 0 -10 3 -4 5 12 5 17 0 24 -2 18 -5z m-918 -13
c68 -7 69 -7 15 -7 -30 0 -86 3 -125 7 -68 7 -69 7 -15 7 30 0 87 -3 125 -7z
m830 -1 c-22 -4 -58 -7 -80 -7 -39 1 -38 1 10 8 28 4 64 7 80 7 25 1 23 -1
-10 -8z m-622 -16 c-23 -2 -64 -2 -90 0 -26 2 -7 3 42 3 50 0 71 -1 48 -3z
m470 0 c-18 -2 -48 -2 -65 0 -18 2 -4 4 32 4 36 0 50 -2 33 -4z"/>
<path d="M6875 7031 c-74 -33 -125 -113 -125 -197 0 -98 72 -214 243 -390 111
-116 207 -194 284 -233 52 -26 63 -26 63 -3 0 11 -49 60 -121 122 -334 288
-450 484 -353 599 55 66 201 68 371 4 68 -25 90 9 28 45 -110 65 -305 92 -390
53z"/>
<path d="M5195 6764 c-101 -52 -144 -163 -144 -369 0 -124 20 -290 37 -307 27
-27 35 8 29 129 -11 257 22 418 95 463 39 24 107 26 147 5 43 -22 104 -96 167
-203 107 -182 126 -205 150 -180 44 44 -88 302 -204 398 -91 75 -205 102 -277
64z"/>
<path d="M2153 7106 c-249 -82 -770 -477 -952 -720 -50 -68 -62 -96 -40 -96 6
0 86 72 177 159 215 205 278 258 420 358 240 168 354 223 465 223 78 0 109
-16 124 -61 24 -73 -22 -202 -130 -368 -52 -79 -61 -111 -33 -111 28 0 115
118 174 235 51 101 71 162 78 234 14 145 -105 206 -283 147z"/>
<path d="M3138 6838 c-249 -275 -400 -539 -462 -807 -8 -36 -13 -68 -10 -73
16 -25 40 8 83 112 126 304 262 524 443 717 79 83 88 99 66 121 -24 24 -46 11
-120 -70z"/>
</g>
</svg>
